<?xml version='1.0' encoding='iso-8859-1'?>
<svg version="1.1" xmlns="http://www.w3.org/2000/svg" viewBox="0 0 463 463" xmlns:xlink="http://www.w3.org/1999/xlink" enable-background="new 0 0 463 463">
  <g>
    <g>
      <path d="M455.5,224h-24.655C426.978,119.948,343.052,36.022,239,32.155V7.5c0-4.142-3.358-7.5-7.5-7.5S224,3.358,224,7.5v24.655    C119.948,36.022,36.022,119.948,32.155,224H7.5c-4.142,0-7.5,3.358-7.5,7.5s3.358,7.5,7.5,7.5h24.655    C36.022,343.052,119.948,426.978,224,430.845V455.5c0,4.142,3.358,7.5,7.5,7.5s7.5-3.358,7.5-7.5v-24.655    C343.052,426.978,426.978,343.052,430.845,239H455.5c4.142,0,7.5-3.358,7.5-7.5S459.642,224,455.5,224z M415.835,224h-33.022    C379.012,146.418,316.582,83.988,239,80.187V47.165C334.78,51.015,411.985,128.22,415.835,224z M343.5,239h24.291    C364.019,308.308,308.308,364.019,239,367.791V343.5c0-4.142-3.358-7.5-7.5-7.5s-7.5,3.358-7.5,7.5v24.291    C154.692,364.019,98.981,308.308,95.209,239H119.5c4.142,0,7.5-3.358,7.5-7.5s-3.358-7.5-7.5-7.5H95.209    C98.981,154.692,154.692,98.981,224,95.209V119.5c0,4.142,3.358,7.5,7.5,7.5s7.5-3.358,7.5-7.5V95.209    C308.308,98.981,364.019,154.692,367.791,224H343.5c-4.142,0-7.5,3.358-7.5,7.5S339.358,239,343.5,239z M224,47.165v33.021    C146.418,83.988,83.988,146.418,80.187,224H47.165C51.015,128.22,128.22,51.015,224,47.165z M47.165,239h33.022    C83.988,316.582,146.418,379.012,224,382.813v33.022C128.22,411.985,51.015,334.78,47.165,239z M239,415.835v-33.022    c77.582-3.801,140.012-66.232,143.813-143.813h33.022C411.985,334.78,334.78,411.985,239,415.835z"/>
      <path d="m231.5,200c-17.369,0-31.5,14.131-31.5,31.5s14.131,31.5 31.5,31.5 31.5-14.131 31.5-31.5-14.131-31.5-31.5-31.5zm0,48c-9.098,0-16.5-7.402-16.5-16.5s7.402-16.5 16.5-16.5 16.5,7.402 16.5,16.5-7.402,16.5-16.5,16.5z"/>
    </g>
  </g>
</svg>
