<?xml version="1.0" encoding="iso-8859-1"?>
<!-- Generator: Adobe Illustrator 19.0.0, SVG Export Plug-In . SVG Version: 6.00 Build 0)  -->
<svg version="1.1" id="Layer_1" xmlns="http://www.w3.org/2000/svg" xmlns:xlink="http://www.w3.org/1999/xlink" x="0px" y="0px"
	 viewBox="0 0 488 488" style="enable-background:new 0 0 488 488;" xml:space="preserve">
<g transform="translate(0 -540.36)">
	<g>
		<g>
			<path d="M288.23,824.76L288.23,824.76c2.001,0,4.001-0.6,6.002-1.8c3.501-2.4,5.002-6.9,3.801-11l-14.205-47.5l38.413-29.3
				c3.401-2.6,4.702-7.1,3.401-11.1c-1.4-4.1-5.102-6.8-9.403-6.9l-47.516-0.7l-14.805-46.5c-1.3-4.1-5.102-7-9.403-7
				c-4.401-0.1-8.203,2.7-9.603,6.8l-15.505,45.9l-47.616,0.7c-4.301,0.1-8.103,2.9-9.403,6.9c-1.4,4.1,0,8.5,3.401,11.1
				l38.313,29.3l-14.805,47.4c-1.3,4.1,0.2,8.6,3.701,11.1c3.501,2.5,8.203,2.5,11.704,0l38.813-27.8l38.813,28.5
				C284.028,824.16,286.129,824.76,288.23,824.76z M249.417,773.86c-1.701-1.3-3.801-1.9-5.902-1.9c-2.001,0-4.101,0.6-5.902,1.7
				l-20.407,14.6l8.003-25.6c1.2-4-0.2-8.3-3.501-10.9l-20.907-16l25.808-0.4c4.201-0.1,7.903-2.8,9.303-6.8l8.003-23.6l7.703,24.2
				c1.3,4.1,5.102,6.9,9.403,7l25.808,0.4l-20.907,16c-3.301,2.5-4.701,6.8-3.501,10.8l7.602,25.6L249.417,773.86z"/>
			<path d="M442.68,801.86c11.204-39.9,9.503-82.7-4.802-123.7c-28.309-81.6-105.434-137-192.063-137.8
				c-42.914,0-84.027,12.8-118.939,36.9c-35.011,24.2-61.02,58-75.325,97.6c-15.305,41.3-17.706,84.4-6.902,124.7
				c10.703,40.2,34.211,75.2,68.122,101.8l-41.914,70.6c-1.4,2.4-1.801,5.3-1,7.9c0.8,2.7,2.601,4.9,5.102,6.1l82.427,41.2
				c1.4,0.7,3.001,1.1,4.501,1.1c3.401,0,6.602-1.7,8.503-4.7l47.716-76.8h52.017l47.315,76.8c1.901,3,5.202,4.8,8.503,4.8
				c1.5,0,3.001-0.3,4.501-1.1l82.427-41.2c2.501-1.2,4.301-3.4,5.102-6.1c0.8-2.7,0.4-5.5-1-7.9l-41.513-70.7
				C408.469,875.46,431.676,841.16,442.68,801.86z M158.187,1005.26L158.187,1005.26l-64.621-32.3l41.113-69.2l21.207-35.7
				c20.607,14.3,44.815,23.7,71.123,26.6L158.187,1005.26z M110.271,743.86c0-73.1,60.12-132.5,134.044-132.5
				c73.524,0,133.243,59.5,133.243,132.5c0,72.7-59.82,131.8-133.243,131.8C170.391,875.66,110.271,816.56,110.271,743.86z
				 M230.511,926.66l13.704-22.1l13.604,22.1H230.511z M394.364,972.96l-64.721,32.3h0l-68.022-110.5
				c25.808-2.8,50.116-12,71.123-26.7l20.907,35.5c0.1,0.1,0.2,0.3,0.2,0.4L394.364,972.96z M365.255,883.96l-16.805-28.6
				c1.4-1.3,2.901-2.7,4.301-4c28.909-28.6,44.815-66.8,44.815-107.4c0-84.1-68.722-152.5-153.25-152.5
				c-84.928,0-154.05,68.4-154.05,152.5c0,44.1,19.206,83.9,49.816,111.6l-16.906,28.5c-59.92-48.5-80.726-126.7-52.717-202.3
				c26.209-72.6,96.732-121.4,175.357-121.4c78.025,0.7,147.648,50.7,173.256,124.4C445.081,759.26,423.974,836.26,365.255,883.96z"
				/>
		</g>
	</g>
</g>
<g>
</g>
<g>
</g>
<g>
</g>
<g>
</g>
<g>
</g>
<g>
</g>
<g>
</g>
<g>
</g>
<g>
</g>
<g>
</g>
<g>
</g>
<g>
</g>
<g>
</g>
<g>
</g>
<g>
</g>
</svg>
