<?xml version="1.0" encoding="utf-8"?>
<!-- Generator: Adobe Illustrator 24.0.2, SVG Export Plug-In . SVG Version: 6.00 Build 0)  -->
<svg version="1.1" xmlns="http://www.w3.org/2000/svg" xmlns:xlink="http://www.w3.org/1999/xlink" x="0px" y="0px"
	 viewBox="0 0 24 24" style="enable-background:new 0 0 24 24;" xml:space="preserve">
<style type="text/css">
	.st0{fill:none;}
	.st1{display:none;}
	.st2{display:inline;}
	.st3{fill:none;stroke:#CECECE;stroke-width:0.1;stroke-miterlimit:10;}
	.st4{fill:#121331;}
</style>
<g id="bounding_box">
	<rect x="0" y="0" class="st0" width="24" height="24"/>
</g>
<g id="design">
	<path class="st4" d="M19.28,21.03H4.75C3.79,21.03,3,20.25,3,19.28V4.75C3,3.79,3.79,3,4.75,3h14.53c0.96,0,1.75,0.79,1.75,1.75
		v14.53C21.03,20.25,20.25,21.03,19.28,21.03z M4.75,4.5C4.61,4.5,4.5,4.61,4.5,4.75v14.53c0,0.14,0.11,0.25,0.25,0.25h14.53
		c0.14,0,0.25-0.11,0.25-0.25V4.75c0-0.14-0.11-0.25-0.25-0.25H4.75z"/>
	<path class="st4" d="M12,14.5c-0.41,0-0.75-0.33-0.75-0.75c0-1.15,0.63-2.23,1.7-2.88c0.7-0.43,1.02-1.23,0.81-2.05
		c-0.15-0.6-0.66-1.1-1.26-1.26c-0.58-0.15-1.15-0.04-1.61,0.31c-0.45,0.35-0.71,0.87-0.71,1.44c0,0.41-0.34,0.75-0.75,0.75
		S8.68,9.73,8.68,9.32c0-1.03,0.47-1.99,1.29-2.62c0.82-0.63,1.88-0.84,2.9-0.58C14,6.4,14.91,7.32,15.21,8.45
		c0.37,1.45-0.22,2.93-1.48,3.7c-0.61,0.38-0.98,0.97-0.98,1.6C12.75,14.16,12.41,14.5,12,14.5z"/>
	<path class="st4" d="M12,18c-0.27,0-0.52-0.1-0.71-0.29C11.1,17.52,11,17.27,11,17c0-0.13,0.02-0.26,0.08-0.38
		c0.05-0.12,0.12-0.23,0.21-0.33c0.37-0.37,1.05-0.37,1.42,0c0.09,0.1,0.16,0.21,0.21,0.33S13,16.87,13,17
		c0,0.27-0.1,0.52-0.29,0.71C12.52,17.9,12.27,18,12,18z"/>
</g>
</svg>
